<svg version="1.1" viewBox="8.0 15.0 145 22.0" fill="none" stroke="none" stroke-linecap="square" stroke-miterlimit="10" xmlns:xlink="http://www.w3.org/1999/xlink" xmlns="http://www.w3.org/2000/svg">
  <g clip-path="url(#p.0)">
    <path fill="#000000" d="m26.171875 31.209373l-9.96875 0l-1.6875 3.390625l-5.390625 0l9.359375 -17.890625l5.390625 0l9.359375 17.890625l-5.390625 0l-1.671875 -3.390625zm-8.25 -3.484375l6.546875 0l-3.265625 -6.578125l-3.28125 6.578125zm26.693604 -7.1875q-0.84375 0 -1.515625 0.0625q-0.671875 0.0625 -1.140625 0.3125q-0.46875 0.25 -0.71875 0.734375q-0.25 0.484375 -0.25 1.328125l0 0.671875l13.484375 0l0 3.8125l-13.484375 0l0 7.140625l-4.828125 0l0 -12.03125q0 -1.375 0.40625 -2.46875q0.421875 -1.09375 1.375 -1.84375q0.96875 -0.75 2.546875 -1.140625q1.59375 -0.40625 3.96875 -0.40625l10.65625 0l0 3.828125l-10.5 0zm23.089935 0q-0.84375 0 -1.515625 0.0625q-0.671875 0.0625 -1.140625 0.3125q-0.46875 0.25 -0.71875 0.734375q-0.25 0.484375 -0.25 1.328125l0 0.671875l13.484375 0l0 3.8125l-13.484375 0l0 7.140625l-4.828125 0l0 -12.03125q0 -1.375 0.40625 -2.46875q0.421875 -1.09375 1.375 -1.84375q0.96875 -0.75 2.546875 -1.140625q1.59375 -0.40625 3.96875 -0.40625l10.65625 0l0 3.828125l-10.5 0zm34.57431 13.171875q-2.203125 0.734375 -4.390625 1.046875q-2.1875 0.328125 -4.484375 0.328125q-2.921875 0 -5.21875 -0.625q-2.28125 -0.640625 -3.84375 -1.828125q-1.5625 -1.203125 -2.390625 -2.9375q-0.8125 -1.734375 -0.8125 -3.921875q0 -2.03125 0.828125 -3.765625q0.828125 -1.734375 2.34375 -3.015625q1.515625 -1.28125 3.65625 -2.0q2.15625 -0.734375 4.796875 -0.734375q2.4375 0 4.453125 0.65625q2.03125 0.65625 3.484375 1.953125q1.453125 1.28125 2.25 3.171875q0.796875 1.890625 0.796875 4.34375l0 1.203125l-17.609375 0q0.21875 0.84375 0.765625 1.546875q0.546875 0.703125 1.46875 1.203125q0.921875 0.484375 2.265625 0.765625q1.34375 0.265625 3.21875 0.265625q1.328125 0 2.609375 -0.15625q1.28125 -0.15625 2.375 -0.421875q1.109375 -0.28125 2.0 -0.59375q0.890625 -0.328125 1.4375 -0.65625l0 4.171875zm-3.328125 -9.671875q-0.0625 -0.65625 -0.40625 -1.359375q-0.328125 -0.71875 -1.046875 -1.28125q-0.703125 -0.578125 -1.875 -0.953125q-1.15625 -0.375 -2.875 -0.375q-1.625 0 -2.8125 0.40625q-1.1875 0.40625 -2.0 1.015625q-0.796875 0.59375 -1.234375 1.28125q-0.4375 0.6875 -0.5625 1.265625l12.8125 0zm28.89096 9.34375q-0.9375 0.390625 -1.890625 0.703125q-0.9375 0.3125 -1.953125 0.53125q-1.015625 0.234375 -2.140625 0.34375q-1.125 0.125 -2.421875 0.125q-2.734375 0 -5.03125 -0.578125q-2.296875 -0.59375 -3.953125 -1.765625q-1.65625 -1.1875 -2.59375 -2.953125q-0.921875 -1.765625 -0.921875 -4.109375q0 -2.359375 0.921875 -4.125q0.9375 -1.765625 2.59375 -2.9375q1.65625 -1.1875 3.953125 -1.765625q2.296875 -0.59375 5.03125 -0.59375q1.296875 0 2.421875 0.125q1.125 0.109375 2.140625 0.34375q1.015625 0.21875 1.953125 0.53125q0.953125 0.3125 1.890625 0.703125l0 4.359375q-0.734375 -0.40625 -1.5625 -0.796875q-0.8125 -0.40625 -1.8125 -0.71875q-0.984375 -0.328125 -2.171875 -0.53125q-1.171875 -0.203125 -2.65625 -0.203125q-2.28125 0 -3.796875 0.46875q-1.5 0.46875 -2.40625 1.25q-0.890625 0.78125 -1.25 1.796875q-0.359375 1.0 -0.359375 2.09375q0 0.703125 0.15625 1.40625q0.15625 0.703125 0.515625 1.328125q0.359375 0.609375 0.9375 1.125q0.59375 0.515625 1.46875 0.90625q0.875 0.375 2.03125 0.59375q1.171875 0.203125 2.703125 0.203125q1.484375 0 2.65625 -0.1875q1.1875 -0.1875 2.171875 -0.5q1.0 -0.3125 1.8125 -0.703125q0.828125 -0.40625 1.5625 -0.828125l0 4.359375l0 0zm14.537415 -12.765625l0 13.984375l-4.84375 0l0 -13.984375l-7.578125 0l0 -3.90625l20.015625 0l0 3.90625l-7.59375 0z" fill-rule="nonzero"/>
  </g>
</svg>
