<svg version="1.1" viewBox="7 12 88 20" fill="none" stroke="none" stroke-linecap="square" stroke-miterlimit="10" xmlns:xlink="http://www.w3.org/1999/xlink" xmlns="http://www.w3.org/2000/svg">
  <g clip-path="url(#p.0)">
    <path fill="#434343" d="m13.625 14.2925l6.796875 0l6.875 13.140625l2.921875 0l0 2.046875l-8.15625 0l0 -2.046875l2.8125 0l-1.4375 -2.8125l-8.078125 0l-1.46875 2.8125l2.828125 0l0 2.046875l-8.140625 0l0 -2.046875l2.921875 0l5.796875 -11.09375l-3.671875 0l0 -2.046875zm5.765625 2.640625l-2.9375 5.625l5.890625 0l-2.953125 -5.625zm10.015976 1.75l2.34375 0l0 -0.390625q0 -1.015625 0.390625 -1.8125q0.40625 -0.796875 1.109375 -1.328125q0.703125 -0.53125 1.640625 -0.796875q0.953125 -0.28125 2.078125 -0.28125q0.703125 0 1.28125 0.078125q0.578125 0.0625 1.0625 0.1875q0.484375 0.125 0.890625 0.28125q0.40625 0.140625 1.1875 0.484375l-0.890625 1.96875q-0.75 -0.40625 -1.03125 -0.546875q-0.28125 -0.140625 -0.625 -0.234375q-0.34375 -0.09375 -0.828125 -0.140625q-0.484375 -0.0625 -1.234375 -0.0625q-0.609375 0 -1.15625 0.15625q-0.53125 0.140625 -0.90625 0.421875q-0.359375 0.265625 -0.578125 0.65625q-0.203125 0.390625 -0.203125 0.9375l0 0.421875l4.4375 0l0 2.046875l-4.4375 0l0 6.703125l3.15625 0l0 2.046875l-7.6875 0l0 -2.046875l2.34375 0l0 -6.703125l-2.34375 0l0 -2.046875zm8.706207 0l2.34375 0l0 -0.390625q0 -1.015625 0.390625 -1.8125q0.40625 -0.796875 1.109375 -1.328125q0.703125 -0.53125 1.640625 -0.796875q0.953125 -0.28125 2.078125 -0.28125q0.703125 0 1.28125 0.078125q0.578125 0.0625 1.0625 0.1875q0.484375 0.125 0.890625 0.28125q0.40625 0.140625 1.1875 0.484375l-0.890625 1.96875q-0.75 -0.40625 -1.03125 -0.546875q-0.28125 -0.140625 -0.625 -0.234375q-0.34375 -0.09375 -0.828125 -0.140625q-0.484375 -0.0625 -1.234375 -0.0625q-0.609375 0 -1.15625 0.15625q-0.53125 0.140625 -0.90625 0.421875q-0.359375 0.265625 -0.578125 0.65625q-0.203125 0.390625 -0.203125 0.9375l0 0.421875l4.4375 0l0 2.046875l-4.4375 0l0 6.703125l3.15625 0l0 2.046875l-7.6875 0l0 -2.046875l2.34375 0l0 -6.703125l-2.34375 0l0 -2.046875zm19.706207 4.46875q-0.015625 -0.171875 -0.25 -0.71875q-0.234375 -0.5625 -0.71875 -0.984375q-0.46875 -0.421875 -1.21875 -0.6875q-0.734375 -0.265625 -1.8125 -0.265625q-1.015625 0 -1.78125 0.265625q-0.75 0.265625 -1.28125 0.703125q-0.515625 0.421875 -0.8125 0.984375q-0.296875 0.5625 -0.3125 0.703125l8.1875 0zm-4.03125 6.59375q-1.421875 0 -2.609375 -0.375q-1.1875 -0.390625 -2.046875 -1.125q-0.84375 -0.734375 -1.3125 -1.78125q-0.46875 -1.046875 -0.46875 -2.328125q0 -1.25 0.484375 -2.296875q0.5 -1.046875 1.359375 -1.796875q0.875 -0.765625 2.046875 -1.171875q1.1875 -0.40625 2.578125 -0.40625q1.4375 0 2.59375 0.421875q1.171875 0.421875 1.984375 1.203125q0.8125 0.78125 1.234375 1.90625q0.4375 1.109375 0.4375 2.484375l0 0.671875l-10.453125 0q0.015625 0.21875 0.3125 0.78125q0.296875 0.546875 0.8125 0.953125q0.53125 0.390625 1.28125 0.609375q0.765625 0.21875 1.765625 0.21875q0.984375 0 1.671875 -0.15625q0.703125 -0.15625 1.171875 -0.40625q0.484375 -0.25 0.75 -0.546875q0.28125 -0.3125 0.5625 -0.875l2.203125 0q-0.90625 2.328125 -2.5 3.171875q-1.59375 0.84375 -3.859375 0.84375zm17.965378 -6.34375l0 -0.9375q0 -0.46875 -0.328125 -0.828125q-0.3125 -0.375 -0.859375 -0.640625q-0.546875 -0.28125 -1.25 -0.421875q-0.703125 -0.140625 -1.34375 -0.140625q-1.09375 0 -1.953125 0.265625q-0.84375 0.25 -1.421875 0.71875q-0.5625 0.46875 -0.859375 1.140625q-0.296875 0.65625 -0.296875 1.515625q0 0.859375 0.28125 1.53125q0.296875 0.671875 0.859375 1.140625q0.5625 0.46875 1.390625 0.734375q0.84375 0.25 1.9375 0.25q0.921875 0 1.59375 -0.15625q0.6875 -0.171875 1.125 -0.421875q0.453125 -0.265625 0.71875 -0.5625q0.265625 -0.296875 0.515625 -0.859375l2.25 0q-0.84375 2.28125 -2.40625 3.15625q-1.5625 0.859375 -3.859375 0.859375q-1.40625 0 -2.625 -0.359375q-1.203125 -0.375 -2.109375 -1.078125q-0.890625 -0.71875 -1.40625 -1.78125q-0.515625 -1.078125 -0.515625 -2.4375q0 -1.375 0.53125 -2.4375q0.546875 -1.0625 1.46875 -1.78125q0.921875 -0.734375 2.125 -1.09375q1.21875 -0.375 2.5625 -0.375q0.796875 0 1.484375 0.125q0.703125 0.109375 1.28125 0.296875q0.578125 0.1875 1.03125 0.4375q0.46875 0.25 0.328125 0.46875l-0.25 -1.109375l2.015625 0l0 4.78125l-2.015625 0zm2.3039093 -4.71875l2.6875 0l0 -3.421875l2.171875 0l0 3.421875l6.984375 0l0 2.046875l-6.984375 0l0 5.34375q0 0.5 0.171875 0.8125q0.171875 0.296875 0.484375 0.484375q0.328125 0.1875 0.828125 0.28125q0.515625 0.078125 1.15625 0.078125q0.640625 0 1.171875 -0.078125q0.53125 -0.078125 0.96875 -0.1875q0.4375 -0.125 0.78125 -0.28125q0.359375 -0.171875 1.0 -0.578125l1.140625 1.796875q-0.828125 0.453125 -1.34375 0.671875q-0.5 0.203125 -1.09375 0.359375q-0.59375 0.140625 -1.25 0.21875q-0.65625 0.09375 -1.359375 0.09375q-1.046875 0 -1.921875 -0.1875q-0.875 -0.1875 -1.53125 -0.609375q-0.65625 -0.4375 -1.015625 -1.140625q-0.359375 -0.703125 -0.359375 -1.6875l0 -5.390625l-2.6875 0l0 -2.046875z" fill-rule="nonzero"/><path fill="#0000ff" d="m87.42911 27.933125q0 -0.34375 0.125 -0.640625q0.125 -0.3125 0.34375 -0.53125q0.234375 -0.21875 0.53125 -0.359375q0.296875 -0.140625 0.65625 -0.140625q0.34375 0 0.640625 0.140625q0.3125 0.140625 0.53125 0.359375q0.21875 0.21875 0.359375 0.53125q0.140625 0.296875 0.140625 0.640625q0 0.34375 -0.140625 0.65625q-0.140625 0.296875 -0.359375 0.53125q-0.21875 0.21875 -0.53125 0.34375q-0.296875 0.125 -0.640625 0.125q-0.359375 0 -0.65625 -0.125q-0.296875 -0.125 -0.53125 -0.34375q-0.21875 -0.234375 -0.34375 -0.53125q-0.125 -0.3125 -0.125 -0.65625z" fill-rule="nonzero"/>
  </g>
</svg>
